<?xml version="1.0" standalone="no"?>
<!DOCTYPE svg PUBLIC "-//W3C//DTD SVG 20010904//EN"
 "http://www.w3.org/TR/2001/REC-SVG-20010904/DTD/svg10.dtd">
<svg version="1.0" xmlns="http://www.w3.org/2000/svg"
 width="471.000000pt" height="471.000000pt" viewBox="0 0 471.000000 471.000000"
 preserveAspectRatio="xMidYMid meet">
<metadata>
Created by potrace 1.11, written by Peter Selinger 2001-2013
</metadata>
<g transform="translate(0.000000,471.000000) scale(0.100000,-0.100000)"
fill="#000000" stroke="none">
<path d="M1960 4255 c-121 -21 -237 -70 -318 -135 -30 -25 -37 -26 -85 -18
-71 12 -207 1 -292 -24 -193 -55 -341 -176 -421 -343 -19 -38 -34 -75 -34 -81
0 -7 -29 -26 -65 -42 -92 -44 -152 -86 -218 -156 -66 -69 -133 -195 -143 -268
-4 -25 -9 -50 -13 -56 -3 -5 -44 -29 -91 -52 -110 -55 -180 -100 -235 -151
l-45 -42 0 -133 c0 -131 0 -133 26 -153 37 -29 90 -27 139 7 22 15 85 83 139
152 55 68 101 119 104 112 2 -6 -11 -32 -28 -57 -57 -83 -82 -160 -88 -268 -6
-118 7 -185 53 -283 35 -73 140 -197 188 -223 22 -12 27 -23 32 -70 18 -168
59 -257 169 -367 49 -49 108 -96 148 -118 l68 -38 0 -475 c0 -340 3 -481 12
-496 28 -55 112 -96 167 -82 43 11 90 45 109 78 15 29 17 76 20 441 l3 409 37
-35 c190 -183 512 -239 771 -135 l59 24 70 -23 c39 -13 114 -29 169 -35 120
-14 247 5 357 52 39 17 77 33 84 36 9 4 12 -69 12 -345 0 -218 4 -361 10 -378
22 -57 108 -103 169 -89 43 9 89 42 108 77 16 30 18 73 21 505 l3 472 41 12
c154 41 304 151 385 281 l36 58 62 -35 c265 -149 566 -131 757 44 141 129 190
352 137 618 -20 96 -20 107 -6 115 47 26 106 79 135 122 l32 48 0 131 c0 129
0 131 -31 178 -38 60 -106 117 -186 158 -98 50 -149 62 -303 71 -120 6 -158
13 -220 35 -48 18 -103 30 -152 33 l-77 5 -38 66 c-72 125 -220 247 -350 288
-29 9 -53 21 -53 25 0 26 -68 144 -111 193 -58 67 -87 91 -154 131 -126 75
-250 107 -405 102 l-105 -2 -60 37 c-70 44 -183 83 -280 97 -88 12 -131 11
-225 -5z"/>
</g>
</svg>
